<?xml version="1.0" encoding="UTF-8" standalone="no"?>
<!DOCTYPE svg PUBLIC "-//W3C//DTD SVG 1.1//EN" "http://www.w3.org/Graphics/SVG/1.1/DTD/svg11.dtd">
<svg xmlns="http://www.w3.org/2000/svg" xmlns:xlink="http://www.w3.org/1999/xlink" version="1.1" width="421.718pt" height="304.694pt" viewBox="0 0 421.718 304.694">
<g enable-background="new">
<path transform="matrix(1,0,0,-1,146.794,29.450989)" d="M 20.37059 0 C 20.37059 5.50235 11.2505 9.96277 0 9.96277 C -11.2505 9.96277 -20.37059 5.50235 -20.37059 0 C -20.37059 -5.50235 -11.2505 -9.96277 0 -9.96277 C 11.2505 -9.96277 20.37059 -5.50235 20.37059 0 Z M 0 0 " fill="#ffcccc"/>
<path transform="matrix(1,0,0,-1,146.794,29.450989)" stroke-width=".3985" stroke-linecap="butt" stroke-miterlimit="10" stroke-linejoin="miter" fill="none" stroke="#000000" d="M 20.37059 0 C 20.37059 5.50235 11.2505 9.96277 0 9.96277 C -11.2505 9.96277 -20.37059 5.50235 -20.37059 0 C -20.37059 -5.50235 -11.2505 -9.96277 0 -9.96277 C 11.2505 -9.96277 20.37059 -5.50235 20.37059 0 Z M 0 0 "/>
<text xml:space="preserve" transform="matrix(1 0 -0 1 0 304.69398)" font-size="9.9626" font-family="CMR10"><tspan y="-271.839" x="135.71 141.2492 145.12467 150.10596 154.01129">Start</tspan></text>
<path transform="matrix(1,0,0,-1,146.794,29.450989)" d="M 142.61109 19.92555 L 84.16347 19.92555 C 81.96252 19.92555 80.17836 18.14139 80.17836 15.94044 L 80.17836 -15.94044 C 80.17836 -18.14139 81.96252 -19.92555 84.16347 -19.92555 L 142.61109 -19.92555 C 144.81203 -19.92555 146.59619 -18.14139 146.59619 -15.94044 L 146.59619 15.94044 C 146.59619 18.14139 144.81203 19.92555 142.61109 19.92555 Z M 80.17836 -19.92555 " fill="#ccccff"/>
<path transform="matrix(1,0,0,-1,146.794,29.450989)" stroke-width=".3985" stroke-linecap="butt" stroke-miterlimit="10" stroke-linejoin="miter" fill="none" stroke="#000000" d="M 142.61109 19.92555 L 84.16347 19.92555 C 81.96252 19.92555 80.17836 18.14139 80.17836 15.94044 L 80.17836 -15.94044 C 80.17836 -18.14139 81.96252 -19.92555 84.16347 -19.92555 L 142.61109 -19.92555 C 144.81203 -19.92555 146.59619 -18.14139 146.59619 -15.94044 L 146.59619 15.94044 C 146.59619 18.14139 144.81203 19.92555 142.61109 19.92555 Z M 80.17836 -19.92555 "/>
<text xml:space="preserve" transform="matrix(1 0 -0 1 .000015258789 304.694)" font-size="9.9626" font-family="CMR10"><tspan y="-272.807" x="230.845 238.45642 242.87982 246.75528 251.17868 255.60208 259.47755 266.2621 271.8013 276.2247 284.2446">DetectEnemy</tspan></text>
<path transform="matrix(1,0,0,-1,146.794,29.450989)" d="M 256.02687 0 L 226.77457 29.25229 L 197.52227 0 L 226.77457 -29.25229 Z " fill="#ccccff"/>
<path transform="matrix(1,0,0,-1,146.794,29.450989)" stroke-width=".3985" stroke-linecap="butt" stroke-miterlimit="10" stroke-linejoin="miter" fill="none" stroke="#000000" d="M 256.02687 0 L 226.77457 29.25229 L 197.52227 0 L 226.77457 -29.25229 Z "/>
<text xml:space="preserve" transform="matrix(1 0 -0 1 0 304.694)" font-size="9.9626" font-family="CMR10"><tspan y="-272.752" x="348.659 354.1982 358.6216 366.09358 370.51698 376.05619 380.47959 388.49949 393.75975">Seeenemy?</tspan></text>
<path transform="matrix(1,0,0,-1,146.794,29.450989)" d="M 255.99837 -65.11488 L 197.55075 -65.11488 C 195.34981 -65.11488 193.56565 -66.89905 193.56565 -69.09999 L 193.56565 -100.98091 C 193.56565 -103.18185 195.34981 -104.96602 197.55075 -104.96602 L 255.99837 -104.96602 C 258.1993 -104.96602 259.98347 -103.18185 259.98347 -100.98091 L 259.98347 -69.09999 C 259.98347 -66.89905 258.1993 -65.11488 255.99837 -65.11488 Z M 193.56565 -104.96602 " fill="#ccccff"/>
<path transform="matrix(1,0,0,-1,146.794,29.450989)" stroke-width=".3985" stroke-linecap="butt" stroke-miterlimit="10" stroke-linejoin="miter" fill="none" stroke="#000000" d="M 255.99837 -65.11488 L 197.55075 -65.11488 C 195.34981 -65.11488 193.56565 -66.89905 193.56565 -69.09999 L 193.56565 -100.98091 C 193.56565 -103.18185 195.34981 -104.96602 197.55075 -104.96602 L 255.99837 -104.96602 C 258.1993 -104.96602 259.98347 -103.18185 259.98347 -100.98091 L 259.98347 -69.09999 C 259.98347 -66.89905 258.1993 -65.11488 255.99837 -65.11488 Z M 193.56565 -104.96602 "/>
<text xml:space="preserve" transform="matrix(1 0 -0 1 0 304.69398)" font-size="9.9626" font-family="CMR10"><tspan y="-199.668" x="357.168 363.95256 369.49177 374.47306 380.01228 382.78187 387.20527">Enable.</tspan><tspan y="-187.713" x="351.149 356.6882 361.1116 368.3046 372.728 378.2672 382.6906 390.7205">Setenemy</tspan><tspan y="-175.757" x="353.04499 358.02629 365.26908 369.14454 374.12583 378.03117 383.01246 387.43586 391.3113">astarget.</tspan></text>
<path transform="matrix(1,0,0,-1,146.794,29.450989)" d="M 29.2238 -65.11488 L -29.2238 -65.11488 C -31.42474 -65.11488 -33.20891 -66.89905 -33.20891 -69.09999 L -33.20891 -100.98091 C -33.20891 -103.18185 -31.42474 -104.96602 -29.2238 -104.96602 L 29.2238 -104.96602 C 31.42474 -104.96602 33.20891 -103.18185 33.20891 -100.98091 L 33.20891 -69.09999 C 33.20891 -66.89905 31.42474 -65.11488 29.2238 -65.11488 Z M -33.20891 -104.96602 " fill="#ccccff"/>
<path transform="matrix(1,0,0,-1,146.794,29.450989)" stroke-width=".3985" stroke-linecap="butt" stroke-miterlimit="10" stroke-linejoin="miter" fill="none" stroke="#000000" d="M 29.2238 -65.11488 L -29.2238 -65.11488 C -31.42474 -65.11488 -33.20891 -66.89905 -33.20891 -69.09999 L -33.20891 -100.98091 C -33.20891 -103.18185 -31.42474 -104.96602 -29.2238 -104.96602 L 29.2238 -104.96602 C 31.42474 -104.96602 33.20891 -103.18185 33.20891 -100.98091 L 33.20891 -69.09999 C 33.20891 -66.89905 31.42474 -65.11488 29.2238 -65.11488 Z M -33.20891 -104.96602 "/>
<text xml:space="preserve" transform="matrix(1 0 -0 1 .0000076293949 304.69398)" font-size="9.9626" font-family="CMR10"><tspan y="-187.713" x="118.497 125.00258 127.77218 133.03243 137.45583 142.99503 150.46698 156.28513 161.82433 166.80562 170.68108">FixedUpdate</tspan></text>
<path transform="matrix(1,0,0,-1,146.794,29.450989)" d="M 28.28369 -170.08092 L 0 -141.79721 L -28.28369 -170.08092 L 0 -198.36463 Z " fill="#ccccff"/>
<path transform="matrix(1,0,0,-1,146.794,29.450989)" stroke-width=".3985" stroke-linecap="butt" stroke-miterlimit="10" stroke-linejoin="miter" fill="none" stroke="#000000" d="M 28.28369 -170.08092 L 0 -141.79721 L -28.28369 -170.08092 L 0 -198.36463 Z "/>
<text xml:space="preserve" transform="matrix(1 0 -0 1 .0000076293949 304.69398)" font-size="9.9626" font-family="CMR10"><tspan y="-101.705" x="126.661 133.44554 138.98474 143.96604 149.50524 152.27484 156.69824 162.23744">Enabled?</tspan></text>
<path transform="matrix(1,0,0,-1,146.794,29.450989)" d="M -84.16347 -150.15535 L -142.61109 -150.15535 C -144.81203 -150.15535 -146.59619 -151.93952 -146.59619 -154.14046 L -146.59619 -186.02138 C -146.59619 -188.22232 -144.81203 -190.00649 -142.61109 -190.00649 L -84.16347 -190.00649 C -81.96252 -190.00649 -80.17836 -188.22232 -80.17836 -186.02138 L -80.17836 -154.14046 C -80.17836 -151.93952 -81.96252 -150.15535 -84.16347 -150.15535 Z M -146.59619 -190.00649 " fill="#ccccff"/>
<path transform="matrix(1,0,0,-1,146.794,29.450989)" stroke-width=".3985" stroke-linecap="butt" stroke-miterlimit="10" stroke-linejoin="miter" fill="none" stroke="#000000" d="M -84.16347 -150.15535 L -142.61109 -150.15535 C -144.81203 -150.15535 -146.59619 -151.93952 -146.59619 -154.14046 L -146.59619 -186.02138 C -146.59619 -188.22232 -144.81203 -190.00649 -142.61109 -190.00649 L -84.16347 -190.00649 C -81.96252 -190.00649 -80.17836 -188.22232 -80.17836 -186.02138 L -80.17836 -154.14046 C -80.17836 -151.93952 -81.96252 -150.15535 -84.16347 -150.15535 Z M -146.59619 -190.00649 "/>
<text xml:space="preserve" transform="matrix(1 0 -0 1 .0000042915346 304.694)" font-size="9.9626" font-family="CMR10"><tspan y="-101.76" x="17.73 24.0961 28.001439 32.98274 38.521947 42.447214 45.216817">Transit</tspan></text>
<path transform="matrix(1,0,0,-1,146.794,29.450989)" d="M 142.63957 -170.08092 L 113.38728 -140.82862 L 84.13498 -170.08092 L 113.38728 -199.3332 Z " fill="#ccccff"/>
<path transform="matrix(1,0,0,-1,146.794,29.450989)" stroke-width=".3985" stroke-linecap="butt" stroke-miterlimit="10" stroke-linejoin="miter" fill="none" stroke="#000000" d="M 142.63957 -170.08092 L 113.38728 -140.82862 L 84.13498 -170.08092 L 113.38728 -199.3332 Z "/>
<text xml:space="preserve" transform="matrix(1 0 -0 1 .000015258789 304.694)" font-size="9.9626" font-family="CMR10"><tspan y="-102.673" x="235.951 241.4902 245.9136 253.65456 257.53 262.5113 266.41664 271.39793 275.82133 279.69679">Seetarget?</tspan></text>
<path transform="matrix(1,0,0,-1,146.794,29.450989)" d="M 255.99837 -150.15535 L 197.55075 -150.15535 C 195.34981 -150.15535 193.56565 -151.93952 193.56565 -154.14046 L 193.56565 -186.02138 C 193.56565 -188.22232 195.34981 -190.00649 197.55075 -190.00649 L 255.99837 -190.00649 C 258.1993 -190.00649 259.98347 -188.22232 259.98347 -186.02138 L 259.98347 -154.14046 C 259.98347 -151.93952 258.1993 -150.15535 255.99837 -150.15535 Z M 193.56565 -190.00649 " fill="#ccccff"/>
<path transform="matrix(1,0,0,-1,146.794,29.450989)" stroke-width=".3985" stroke-linecap="butt" stroke-miterlimit="10" stroke-linejoin="miter" fill="none" stroke="#000000" d="M 255.99837 -150.15535 L 197.55075 -150.15535 C 195.34981 -150.15535 193.56565 -151.93952 193.56565 -154.14046 L 193.56565 -186.02138 C 193.56565 -188.22232 195.34981 -190.00649 197.55075 -190.00649 L 255.99837 -190.00649 C 258.1993 -190.00649 259.98347 -188.22232 259.98347 -186.02138 L 259.98347 -154.14046 C 259.98347 -151.93952 258.1993 -150.15535 255.99837 -150.15535 Z M 193.56565 -190.00649 "/>
<text xml:space="preserve" transform="matrix(1 0 -0 1 0 304.694)" font-size="9.9626" font-family="CMR10"><tspan y="-102.729" x="348.23 355.70198 361.24119 366.50144 370.3769 376.74299 381.72428 385.6296 390.6109 395.0343">HuntTarget</tspan></text>
<path transform="matrix(1,0,0,-1,146.794,29.450989)" d="M 142.61109 -235.1958 L 84.16347 -235.1958 C 81.96252 -235.1958 80.17836 -236.97997 80.17836 -239.18091 L 80.17836 -271.06184 C 80.17836 -273.26277 81.96252 -275.04695 84.16347 -275.04695 L 142.61109 -275.04695 C 144.81203 -275.04695 146.59619 -273.26277 146.59619 -271.06184 L 146.59619 -239.18091 C 146.59619 -236.97997 144.81203 -235.1958 142.61109 -235.1958 Z M 80.17836 -275.04695 " fill="#ccccff"/>
<path transform="matrix(1,0,0,-1,146.794,29.450989)" stroke-width=".3985" stroke-linecap="butt" stroke-miterlimit="10" stroke-linejoin="miter" fill="none" stroke="#000000" d="M 142.61109 -235.1958 L 84.16347 -235.1958 C 81.96252 -235.1958 80.17836 -236.97997 80.17836 -239.18091 L 80.17836 -271.06184 C 80.17836 -273.26277 81.96252 -275.04695 84.16347 -275.04695 L 142.61109 -275.04695 C 144.81203 -275.04695 146.59619 -273.26277 146.59619 -271.06184 L 146.59619 -239.18091 C 146.59619 -236.97997 144.81203 -235.1958 142.61109 -235.1958 Z M 80.17836 -275.04695 "/>
<text xml:space="preserve" transform="matrix(1 0 -0 1 .000015258789 304.694)" font-size="9.9626" font-family="CMR10"><tspan y="-28.676" x="247.692 255.51265 263.8115 267.68696">Goto</tspan><tspan y="-16.721" x="234.37401 238.24947 243.23076 247.1361 252.11739 256.54078 260.41624 263.18583 270.42863 273.1982 278.1795 282.10478">target&#x2019;slast</tspan><tspan y="-4.7660009" x="242.88301 245.65262 250.91286 255.33626 260.31758 264.19303 266.96263 271.9439">location</tspan></text>
<path transform="matrix(1,0,0,-1,146.794,29.450989)" stroke-width=".3985" stroke-linecap="butt" stroke-miterlimit="10" stroke-linejoin="miter" fill="none" stroke="#000000" d="M 0 -10.16203 L 0 -64.45735 "/>
<path transform="matrix(0,1,1,0,146.794,93.90834)" stroke-width=".31879" stroke-linecap="round" stroke-linejoin="round" fill="none" stroke="#000000" d="M -1.19551 1.59401 C -1.09587 .99626 0 .09961 .29886 0 C 0 -.09961 -1.09587 -.99626 -1.19551 -1.59401 "/>
<text xml:space="preserve" transform="matrix(1 0 -0 1 0 304.694)" font-size="9.9626" font-family="CMR10"><tspan y="-241.537" x="150.313 154.21834 159.75754 168.61429 173.03769 178.019 182.45236 186.34774">runevery</tspan><tspan y="-229.582" x="150.313 155.2943 158.0639 163.0452 171.34404 175.2693 179.6927">0.02sec</tspan></text>
<path transform="matrix(1,0,0,-1,146.794,29.450989)" stroke-width=".3985" stroke-linecap="butt" stroke-miterlimit="10" stroke-linejoin="miter" fill="none" stroke="#000000" d="M 20.56985 0 L 79.52083 0 "/>
<path transform="matrix(1,0,0,-1,226.31484,29.450989)" stroke-width=".31879" stroke-linecap="round" stroke-linejoin="round" fill="none" stroke="#000000" d="M -1.19551 1.59401 C -1.09587 .99626 0 .09961 .29886 0 C 0 -.09961 -1.09587 -.99626 -1.19551 -1.59401 "/>
<text xml:space="preserve" transform="matrix(1 0 -0 1 0 304.69398)" font-size="9.9626" font-family="CMR10"><tspan y="-290.718" x="174.651 178.55634 184.09554 192.95229 197.37569 202.357 206.79036 210.68573">runevery</tspan><tspan y="-278.762" x="174.651 179.6323 182.4019 187.3832 195.68204 199.6073 204.0307">1.00sec</tspan></text>
<path transform="matrix(1,0,0,-1,146.794,29.450989)" stroke-width=".3985" stroke-linecap="butt" stroke-miterlimit="10" stroke-linejoin="miter" fill="none" stroke="#000000" d="M 146.79546 0 L 196.77909 0 "/>
<path transform="matrix(1,0,0,-1,343.5731,29.450989)" stroke-width=".31879" stroke-linecap="round" stroke-linejoin="round" fill="none" stroke="#000000" d="M -1.19551 1.59401 C -1.09587 .99626 0 .09961 .29886 0 C 0 -.09961 -1.09587 -.99626 -1.19551 -1.59401 "/>
<path transform="matrix(1,0,0,-1,146.794,29.450989)" stroke-width=".3985" stroke-linecap="butt" stroke-miterlimit="10" stroke-linejoin="miter" fill="none" stroke="#000000" d="M 226.77457 -29.53787 L 226.77457 -64.45735 "/>
<path transform="matrix(0,1,1,0,373.56858,93.90834)" stroke-width=".31879" stroke-linecap="round" stroke-linejoin="round" fill="none" stroke="#000000" d="M -1.19551 1.59401 C -1.09587 .99626 0 .09961 .29886 0 C 0 -.09961 -1.09587 -.99626 -1.19551 -1.59401 "/>
<text xml:space="preserve" transform="matrix(1 0 -0 1 .000030517579 304.69398)" font-size="9.9626" font-family="CMR10"><tspan y="-226.84" x="377.085 382.06629 386.4897">yes</tspan></text>
<path transform="matrix(1,0,0,-1,146.794,29.450989)" stroke-width=".3985" stroke-linecap="butt" stroke-miterlimit="10" stroke-linejoin="miter" fill="none" stroke="#000000" d="M 0 -105.16527 L 0 -141.0547 "/>
<path transform="matrix(0,1,1,0,146.794,170.50569)" stroke-width=".31879" stroke-linecap="round" stroke-linejoin="round" fill="none" stroke="#000000" d="M -1.19551 1.59401 C -1.09587 .99626 0 .09961 .29886 0 C 0 -.09961 -1.09587 -.99626 -1.19551 -1.59401 "/>
<path transform="matrix(1,0,0,-1,146.794,29.450989)" stroke-width=".3985" stroke-linecap="butt" stroke-miterlimit="10" stroke-linejoin="miter" fill="none" stroke="#000000" d="M -28.56837 -170.08092 L -79.52083 -170.08092 "/>
<path transform="matrix(-1,-0,0,1,67.27318,199.5319)" stroke-width=".31879" stroke-linecap="round" stroke-linejoin="round" fill="none" stroke="#000000" d="M -1.19551 1.59401 C -1.09587 .99626 0 .09961 .29886 0 C 0 -.09961 -1.09587 -.99626 -1.19551 -1.59401 "/>
<text xml:space="preserve" transform="matrix(1 0 -0 1 .0000076293949 304.694)" font-size="9.9626" font-family="CMR10"><tspan y="-108.684" x="87.262 92.80121">no</tspan></text>
<path transform="matrix(1,0,0,-1,146.794,29.450989)" stroke-width=".3985" stroke-linecap="butt" stroke-miterlimit="10" stroke-linejoin="miter" fill="none" stroke="#000000" d="M 28.56969 -170.08092 L 83.3918 -170.08092 "/>
<path transform="matrix(1,0,0,-1,230.1858,199.5319)" stroke-width=".31879" stroke-linecap="round" stroke-linejoin="round" fill="none" stroke="#000000" d="M -1.19551 1.59401 C -1.09587 .99626 0 .09961 .29886 0 C 0 -.09961 -1.09587 -.99626 -1.19551 -1.59401 "/>
<text xml:space="preserve" transform="matrix(1 0 -0 1 .000015258789 304.69398)" font-size="9.9626" font-family="CMR10"><tspan y="-110.621" x="196.333 201.3143 205.7377">yes</tspan></text>
<path transform="matrix(1,0,0,-1,146.794,29.450989)" stroke-width=".3985" stroke-linecap="butt" stroke-miterlimit="10" stroke-linejoin="miter" fill="none" stroke="#000000" d="M 142.92449 -170.08092 L 192.90811 -170.08092 "/>
<path transform="matrix(1,0,0,-1,339.70213,199.5319)" stroke-width=".31879" stroke-linecap="round" stroke-linejoin="round" fill="none" stroke="#000000" d="M -1.19551 1.59401 C -1.09587 .99626 0 .09961 .29886 0 C 0 -.09961 -1.09587 -.99626 -1.19551 -1.59401 "/>
<text xml:space="preserve" transform="matrix(1 0 -0 1 .000030517579 304.69398)" font-size="9.9626" font-family="CMR10"><tspan y="-110.621" x="308.267 313.2483 317.6717">yes</tspan></text>
<path transform="matrix(1,0,0,-1,146.794,29.450989)" stroke-width=".3985" stroke-linecap="butt" stroke-miterlimit="10" stroke-linejoin="miter" fill="none" stroke="#000000" d="M 113.38728 -199.61879 L 113.38728 -234.53827 "/>
<path transform="matrix(0,1,1,0,260.18128,263.98927)" stroke-width=".31879" stroke-linecap="round" stroke-linejoin="round" fill="none" stroke="#000000" d="M -1.19551 1.59401 C -1.09587 .99626 0 .09961 .29886 0 C 0 -.09961 -1.09587 -.99626 -1.19551 -1.59401 "/>
<text xml:space="preserve" transform="matrix(1 0 -0 1 0 304.69398)" font-size="9.9626" font-family="CMR10"><tspan y="-55.793" x="246.143 251.6822">no</tspan></text>
<path transform="matrix(1,0,0,-1,146.794,29.450989)" stroke-width="1.19553" stroke-linecap="butt" stroke-dasharray="2.98883,2.98883" stroke-miterlimit="10" stroke-linejoin="miter" fill="none" stroke="#ff0000" d="M 226.77457 -149.95609 L 260.18275 -149.95609 L 260.18275 -170.08092 L 260.18275 -190.20574 L 226.77457 -190.20574 L 193.3664 -190.20574 L 193.3664 -170.08092 L 193.3664 -149.95609 L 226.77457 -149.95609 "/>
<text fill="#ff0000" xml:space="preserve" transform="matrix(1 0 -0 1 0 304.69398)" font-size="9.9626" font-family="CMR10"><tspan y="-71.8" x="339.333 346.526 352.06523 354.8348 362.0776 364.8472 372.09999 375.97544 381.51466 389.25559 394.23689 399.7761 402.5457">Thisistheonly</tspan><tspan y="-59.845" x="331.612 335.48747 341.02668 343.79627 349.33549 357.6343 361.50978 367.04899 372.03028 379.22328 383.3777 388.9169 393.8982 399.4374 404.4187 408.8421 412.76737">thingthatchanges.</tspan></text>
</g>
</svg>
